<svg width="493" height="120" viewBox="0 0 493 120" fill="none" xmlns="http://www.w3.org/2000/svg">
<path d="M97.4365 25.344C96.4125 26.752 94.1085 30.592 92.9565 33.28C87.7085 45.44 78.2365 62.848 67.2285 75.648C52.8925 92.16 33.5645 108.032 13.7245 117.376L0.4125 103.552C21.1485 95.872 40.8605 80.256 52.8925 66.944C61.3405 57.344 69.1485 44.672 72.0925 35.584C66.7165 35.584 34.0765 35.584 28.5725 35.584C23.3245 35.584 16.2845 36.224 13.4685 36.48V18.176C16.9245 18.688 24.8605 19.072 28.5725 19.072C35.3565 19.072 68.1245 19.072 73.7565 19.072C79.3885 19.072 84.3805 18.432 87.0685 17.536L97.4365 25.344ZM68.8925 65.024C82.0765 75.776 100.253 94.848 108.573 105.088L93.9805 117.76C84.5085 104.576 70.5565 89.344 56.8605 76.928L68.8925 65.024ZM221.469 12.672C221.213 16.256 221.085 20.352 221.085 25.6C221.085 32.128 221.085 44.544 221.085 50.816C221.085 78.464 215.709 90.24 206.109 100.736C197.661 110.08 184.477 116.224 175.133 119.296L161.693 105.088C174.493 102.144 184.733 97.28 192.541 88.96C201.245 79.36 203.037 69.76 203.037 49.792C203.037 43.392 203.037 31.104 203.037 25.6C203.037 20.352 202.653 16.256 202.141 12.672H221.469ZM162.205 13.824C161.949 16.768 161.693 19.584 161.693 23.552C161.693 29.184 161.693 59.648 161.693 66.816C161.693 70.016 161.949 75.008 162.205 77.952H143.517C143.773 75.648 144.157 70.656 144.157 66.688C144.157 59.392 144.157 29.184 144.157 23.552C144.157 21.248 144.029 16.768 143.645 13.824H162.205ZM258.461 52.736C263.197 53.12 272.413 53.632 279.069 53.632C294.173 53.632 336.413 53.632 347.805 53.632C353.821 53.632 359.453 52.992 362.909 52.736V72.96C359.837 72.832 353.309 72.192 347.933 72.192C336.285 72.192 294.173 72.192 279.069 72.192C271.901 72.192 263.325 72.576 258.461 72.96V52.736ZM464.34 4.22399C467.54 9.088 471.764 16.384 474.068 21.12L463.444 25.6C460.884 20.224 457.044 13.696 453.716 8.576L464.34 4.22399ZM482.132 0.895996C485.46 5.632 489.94 13.312 492.372 17.92L481.748 22.4C479.06 17.152 475.092 9.98399 471.508 5.24799L482.132 0.895996ZM477.524 28.288C476.372 30.72 475.348 34.432 474.708 37.12C471.764 49.664 466.132 69.632 455.508 83.84C443.86 99.2 426.836 111.872 404.052 119.168L390.1 103.808C415.444 97.92 429.908 86.784 440.148 73.856C448.724 63.232 453.588 48.64 455.252 37.632C447.572 37.632 405.204 37.632 395.604 37.632C389.844 37.632 383.7 38.016 380.372 38.272V20.096C384.212 20.608 391.38 21.248 395.604 21.248C405.204 21.248 447.7 21.248 454.868 21.248C457.428 21.248 461.524 21.12 464.852 20.224L477.524 28.288Z" fill="white"/>
</svg>
